<svg width="68" height="68" viewBox="0 0 68 68" fill="none" xmlns="http://www.w3.org/2000/svg">
<path d="M53.8333 8.5C55.3362 8.5 56.7776 9.09702 57.8403 10.1597C58.903 11.2224 59.5 12.6638 59.5 14.1667V53.8333C59.5 55.3362 58.903 56.7776 57.8403 57.8403C56.7776 58.903 55.3362 59.5 53.8333 59.5H14.1667C12.6638 59.5 11.2224 58.903 10.1597 57.8403C9.09702 56.7776 8.5 55.3362 8.5 53.8333V14.1667C8.5 12.6638 9.09702 11.2224 10.1597 10.1597C11.2224 9.09702 12.6638 8.5 14.1667 8.5H53.8333ZM52.4167 52.4167V37.4C52.4167 34.9503 51.4435 32.6009 49.7113 30.8687C47.9791 29.1365 45.6297 28.1633 43.18 28.1633C40.7717 28.1633 37.9667 29.6367 36.6067 31.8467V28.7017H28.7017V52.4167H36.6067V38.4483C36.6067 36.2667 38.3633 34.4817 40.545 34.4817C41.597 34.4817 42.606 34.8996 43.3499 35.6435C44.0938 36.3874 44.5117 37.3963 44.5117 38.4483V52.4167H52.4167ZM19.4933 24.2533C20.7558 24.2533 21.9665 23.7518 22.8592 22.8592C23.7518 21.9665 24.2533 20.7558 24.2533 19.4933C24.2533 16.8583 22.1283 14.705 19.4933 14.705C18.2234 14.705 17.0055 15.2095 16.1075 16.1075C15.2095 17.0055 14.705 18.2234 14.705 19.4933C14.705 22.1283 16.8583 24.2533 19.4933 24.2533ZM23.4317 52.4167V28.7017H15.5833V52.4167H23.4317Z" fill="#333333"/>
</svg>
